<?xml version="1.0" encoding="UTF-8"?>
<svg id="Layer_1" xmlns="http://www.w3.org/2000/svg" version="1.1" viewBox="0 0 120 120">
  <!-- Generator: Adobe Illustrator 29.4.0, SVG Export Plug-In . SVG Version: 2.1.0 Build 152)  -->
  <defs>
    <style>
      .st0 {
        fill: #fff;
      }
    </style>
  </defs>
  <rect x="0" y="0" width="120" height="120" rx="10" ry="10"/>
  <g id="Layer_2">
    <path class="st0" d="M44.72,47.49H8.81v11.94h19.83l16.09-11.94Z"/>
    <path class="st0" d="M75.19,47.49l16.09,11.94h19.91v-11.94h-35.99Z"/>
    <path class="st0" d="M35.62,59.43h48.75l-22.34-16.49v-8.61h9.91c1.14,0,2.11-.89,2.11-2.11v-8.29c0-1.14-.89-2.11-2.11-2.11h-11.94c-1.14,0-2.11.89-2.11,2.11v19.01l-22.26,16.49Z"/>
    <path class="st0" d="M35.62,98.19h8.04v-18.85c0-3.66,2.92-6.58,6.58-6.58s6.58,2.92,6.58,6.58v18.85h6.42v-18.85c0-3.66,2.93-6.58,6.58-6.58s6.58,2.92,6.58,6.58v18.85h7.96v-34.61h-48.75v34.61Z"/>
    <path class="st0" d="M8.81,98.19h22.59v-34.61H8.81v34.61ZM16.86,72.67h8.37v12.35h-8.37v-12.35Z"/>
    <path class="st0" d="M88.6,98.19h22.59v-34.61h-22.59v34.61ZM94.77,72.67h8.37v12.35h-8.37v-12.35Z"/>
  </g>
</svg>